<svg width="116" height="17" viewBox="0 0 116 17" fill="none" xmlns="http://www.w3.org/2000/svg">
<path d="M7.04 14L4.224 9.488H2.928V14H1.104V2.704H5.088C6.37867 2.704 7.35467 3.01867 8.016 3.648C8.688 4.27733 9.024 5.10933 9.024 6.144C9.024 7.02933 8.77333 7.75467 8.272 8.32C7.78133 8.88533 7.06667 9.248 6.128 9.408L9.088 14H7.04ZM2.928 8.192H4.944C6.416 8.192 7.152 7.54133 7.152 6.24C7.152 5.62133 6.97067 5.14133 6.608 4.8C6.256 4.448 5.70133 4.272 4.944 4.272H2.928V8.192ZM18.8585 9.168C18.8585 9.46667 18.8372 9.728 18.7945 9.952H12.0105C12.0425 10.8587 12.2932 11.5307 12.7625 11.968C13.2318 12.4053 13.8132 12.624 14.5065 12.624C15.1145 12.624 15.6265 12.4693 16.0425 12.16C16.4692 11.8507 16.7305 11.44 16.8265 10.928H18.7785C18.6612 11.5467 18.4158 12.096 18.0425 12.576C17.6692 13.056 17.1838 13.4347 16.5865 13.712C15.9892 13.9787 15.3225 14.112 14.5865 14.112C13.7332 14.112 12.9758 13.9307 12.3145 13.568C11.6638 13.2053 11.1518 12.6827 10.7785 12C10.4052 11.3173 10.2185 10.512 10.2185 9.584C10.2185 8.66667 10.4052 7.86667 10.7785 7.184C11.1518 6.50133 11.6638 5.97867 12.3145 5.616C12.9758 5.25333 13.7332 5.072 14.5865 5.072C15.4505 5.072 16.2025 5.25333 16.8425 5.616C17.4932 5.968 17.9892 6.45867 18.3305 7.088C18.6825 7.70667 18.8585 8.4 18.8585 9.168ZM17.0185 9.12C17.0398 8.544 16.9385 8.064 16.7145 7.68C16.5012 7.28533 16.2025 6.99733 15.8185 6.816C15.4452 6.624 15.0345 6.528 14.5865 6.528C13.8718 6.528 13.2745 6.74667 12.7945 7.184C12.3145 7.62133 12.0532 8.26667 12.0105 9.12H17.0185ZM24.1556 5.072C24.9556 5.072 25.6383 5.26933 26.2036 5.664C26.769 6.05867 27.169 6.58133 27.4036 7.232V5.184H29.2276V14H27.4036V11.952C27.169 12.6027 26.769 13.1253 26.2036 13.52C25.6383 13.9147 24.9556 14.112 24.1556 14.112C23.3876 14.112 22.6996 13.9307 22.0916 13.568C21.4943 13.2053 21.025 12.6827 20.6836 12C20.3423 11.3173 20.1716 10.512 20.1716 9.584C20.1716 8.66667 20.3423 7.86667 20.6836 7.184C21.025 6.50133 21.4943 5.97867 22.0916 5.616C22.6996 5.25333 23.3876 5.072 24.1556 5.072ZM24.7156 6.672C23.905 6.672 23.2543 6.93333 22.7636 7.456C22.2836 7.968 22.0436 8.67733 22.0436 9.584C22.0436 10.4907 22.2836 11.2053 22.7636 11.728C23.2543 12.24 23.905 12.496 24.7156 12.496C25.2276 12.496 25.6863 12.3787 26.0916 12.144C26.497 11.8987 26.817 11.5573 27.0516 11.12C27.2863 10.6827 27.4036 10.1707 27.4036 9.584C27.4036 9.008 27.2863 8.50133 27.0516 8.064C26.817 7.616 26.497 7.27467 26.0916 7.04C25.6863 6.79467 25.2276 6.672 24.7156 6.672ZM34.9525 5.072C35.7525 5.072 36.4352 5.26933 37.0005 5.664C37.5658 6.05867 37.9605 6.58133 38.1845 7.232V2.16H40.0245V14H38.1845V11.952C37.9605 12.6027 37.5658 13.1253 37.0005 13.52C36.4352 13.9147 35.7525 14.112 34.9525 14.112C34.1845 14.112 33.4965 13.9307 32.8885 13.568C32.2912 13.2053 31.8218 12.6827 31.4805 12C31.1392 11.3173 30.9685 10.512 30.9685 9.584C30.9685 8.66667 31.1392 7.86667 31.4805 7.184C31.8218 6.50133 32.2912 5.97867 32.8885 5.616C33.4965 5.25333 34.1845 5.072 34.9525 5.072ZM35.5125 6.672C34.7018 6.672 34.0512 6.93333 33.5605 7.456C33.0805 7.968 32.8405 8.67733 32.8405 9.584C32.8405 10.4907 33.0805 11.2053 33.5605 11.728C34.0512 12.24 34.7018 12.496 35.5125 12.496C36.0245 12.496 36.4832 12.3787 36.8885 12.144C37.2938 11.8987 37.6138 11.5573 37.8485 11.12C38.0832 10.6827 38.2005 10.1707 38.2005 9.584C38.2005 9.008 38.0832 8.50133 37.8485 8.064C37.6138 7.616 37.2938 7.27467 36.8885 7.04C36.4832 6.79467 36.0245 6.672 35.5125 6.672ZM57.6754 2.88V14H55.8354V5.664L52.6194 14H51.0194L47.7874 5.664V14H45.9634V2.88H48.1714L51.8514 11.76L55.4674 2.88H57.6754ZM63.9016 5.072C64.755 5.072 65.523 5.25333 66.2056 5.616C66.8883 5.97867 67.4216 6.50133 67.8056 7.184C68.1896 7.86667 68.3816 8.66667 68.3816 9.584C68.3816 10.512 68.1896 11.3173 67.8056 12C67.4216 12.6827 66.8883 13.2053 66.2056 13.568C65.523 13.9307 64.755 14.112 63.9016 14.112C63.0483 14.112 62.2803 13.9307 61.5976 13.568C60.9256 13.2053 60.3923 12.6827 59.9976 12C59.6136 11.3067 59.4216 10.5013 59.4216 9.584C59.4216 8.66667 59.6136 7.86667 59.9976 7.184C60.3923 6.50133 60.9256 5.97867 61.5976 5.616C62.2803 5.25333 63.0483 5.072 63.9016 5.072ZM63.9016 6.656C63.4323 6.656 63.0003 6.76267 62.6056 6.976C62.211 7.18933 61.891 7.52 61.6456 7.968C61.411 8.40533 61.2936 8.944 61.2936 9.584C61.2936 10.2347 61.411 10.7787 61.6456 11.216C61.891 11.6533 62.211 11.9787 62.6056 12.192C63.0003 12.4053 63.4323 12.512 63.9016 12.512C64.371 12.512 64.803 12.4053 65.1976 12.192C65.5923 11.9787 65.907 11.6533 66.1416 11.216C66.387 10.7787 66.5096 10.2347 66.5096 9.584C66.5096 8.944 66.387 8.40533 66.1416 7.968C65.907 7.52 65.5923 7.18933 65.1976 6.976C64.803 6.76267 64.371 6.656 63.9016 6.656ZM71.9593 6.912C72.2579 6.336 72.6846 5.88267 73.2393 5.552C73.7939 5.21067 74.4339 5.04 75.1593 5.04V7.024H74.6153C73.8153 7.024 73.1699 7.22133 72.6793 7.616C72.1993 8 71.9593 8.64 71.9593 9.536V14H70.1353V5.184H71.9593V6.912ZM84.7179 9.168C84.7179 9.46667 84.6965 9.728 84.6539 9.952H77.8699C77.9019 10.8587 78.1525 11.5307 78.6219 11.968C79.0912 12.4053 79.6725 12.624 80.3659 12.624C80.9739 12.624 81.4859 12.4693 81.9019 12.16C82.3285 11.8507 82.5899 11.44 82.6859 10.928H84.6379C84.5205 11.5467 84.2752 12.096 83.9019 12.576C83.5285 13.056 83.0432 13.4347 82.4459 13.712C81.8485 13.9787 81.1819 14.112 80.4459 14.112C79.5925 14.112 78.8352 13.9307 78.1739 13.568C77.5232 13.2053 77.0112 12.6827 76.6379 12C76.2645 11.3173 76.0779 10.512 76.0779 9.584C76.0779 8.66667 76.2645 7.86667 76.6379 7.184C77.0112 6.50133 77.5232 5.97867 78.1739 5.616C78.8352 5.25333 79.5925 5.072 80.4459 5.072C81.3099 5.072 82.0619 5.25333 82.7019 5.616C83.3525 5.968 83.8485 6.45867 84.1899 7.088C84.5419 7.70667 84.7179 8.4 84.7179 9.168ZM82.8779 9.12C82.8992 8.544 82.7979 8.064 82.5739 7.68C82.3605 7.28533 82.0619 6.99733 81.6779 6.816C81.3045 6.624 80.8939 6.528 80.4459 6.528C79.7312 6.528 79.1339 6.74667 78.6539 7.184C78.1739 7.62133 77.9125 8.26667 77.8699 9.12H82.8779Z" fill="#F58A07"/>
<path fill-rule="evenodd" clip-rule="evenodd" d="M111.634 4.19887L115.808 8.51989C116.064 8.78505 116.064 9.21495 115.808 9.48011L111.634 13.8011C111.378 14.0663 110.962 14.0663 110.706 13.8011C110.45 13.536 110.45 13.1061 110.706 12.8409L113.761 9.67898L94 9.67898V8.32102L113.761 8.32102L110.706 5.1591C110.45 4.89394 110.45 4.46403 110.706 4.19887C110.962 3.93371 111.378 3.93371 111.634 4.19887Z" fill="#F58A07"/>
</svg>
