<svg width="153" height="17" viewBox="0 0 153 17" fill="none" xmlns="http://www.w3.org/2000/svg">
<path d="M8.528 10.992C8.528 11.5467 8.39467 12.064 8.128 12.544C7.86133 13.0133 7.456 13.392 6.912 13.68C6.368 13.968 5.70133 14.112 4.912 14.112C4.144 14.112 3.456 13.9787 2.848 13.712C2.24 13.4347 1.75467 13.0507 1.392 12.56C1.02933 12.0693 0.821333 11.504 0.768 10.864H2.72C2.77333 11.3547 2.98133 11.776 3.344 12.128C3.71733 12.48 4.21333 12.656 4.832 12.656C5.38667 12.656 5.81333 12.5067 6.112 12.208C6.42133 11.9093 6.576 11.5253 6.576 11.056C6.576 10.6507 6.464 10.32 6.24 10.064C6.016 9.79733 5.73867 9.58933 5.408 9.44C5.07733 9.29067 4.624 9.12 4.048 8.928C3.344 8.704 2.768 8.48 2.32 8.256C1.88267 8.032 1.50933 7.70667 1.2 7.28C0.890667 6.85333 0.736 6.29333 0.736 5.6C0.736 4.992 0.885333 4.45867 1.184 4C1.48267 3.54133 1.90933 3.18933 2.464 2.944C3.01867 2.688 3.65867 2.56 4.384 2.56C5.536 2.56 6.448 2.83733 7.12 3.392C7.80267 3.94667 8.192 4.672 8.288 5.568H6.32C6.24533 5.14133 6.04267 4.77867 5.712 4.48C5.392 4.17067 4.94933 4.016 4.384 4.016C3.872 4.016 3.46133 4.14933 3.152 4.416C2.84267 4.672 2.688 5.04533 2.688 5.536C2.688 5.92 2.79467 6.24 3.008 6.496C3.22133 6.74133 3.488 6.93867 3.808 7.088C4.13867 7.22667 4.58667 7.392 5.152 7.584C5.86667 7.808 6.448 8.03733 6.896 8.272C7.35467 8.496 7.73867 8.82667 8.048 9.264C8.368 9.70133 8.528 10.2773 8.528 10.992ZM18.546 9.168C18.546 9.46667 18.5247 9.728 18.482 9.952H11.698C11.73 10.8587 11.9807 11.5307 12.45 11.968C12.9193 12.4053 13.5007 12.624 14.194 12.624C14.802 12.624 15.314 12.4693 15.73 12.16C16.1567 11.8507 16.418 11.44 16.514 10.928H18.466C18.3487 11.5467 18.1033 12.096 17.73 12.576C17.3567 13.056 16.8713 13.4347 16.274 13.712C15.6767 13.9787 15.01 14.112 14.274 14.112C13.4207 14.112 12.6633 13.9307 12.002 13.568C11.3513 13.2053 10.8393 12.6827 10.466 12C10.0927 11.3173 9.906 10.512 9.906 9.584C9.906 8.66667 10.0927 7.86667 10.466 7.184C10.8393 6.50133 11.3513 5.97867 12.002 5.616C12.6633 5.25333 13.4207 5.072 14.274 5.072C15.138 5.072 15.89 5.25333 16.53 5.616C17.1807 5.968 17.6767 6.45867 18.018 7.088C18.37 7.70667 18.546 8.4 18.546 9.168ZM16.706 9.12C16.7273 8.544 16.626 8.064 16.402 7.68C16.1887 7.28533 15.89 6.99733 15.506 6.816C15.1327 6.624 14.722 6.528 14.274 6.528C13.5593 6.528 12.962 6.74667 12.482 7.184C12.002 7.62133 11.7407 8.26667 11.698 9.12H16.706ZM28.4991 9.168C28.4991 9.46667 28.4778 9.728 28.4351 9.952H21.6511C21.6831 10.8587 21.9338 11.5307 22.4031 11.968C22.8725 12.4053 23.4538 12.624 24.1471 12.624C24.7551 12.624 25.2671 12.4693 25.6831 12.16C26.1098 11.8507 26.3711 11.44 26.4671 10.928H28.4191C28.3018 11.5467 28.0565 12.096 27.6831 12.576C27.3098 13.056 26.8245 13.4347 26.2271 13.712C25.6298 13.9787 24.9631 14.112 24.2271 14.112C23.3738 14.112 22.6165 13.9307 21.9551 13.568C21.3045 13.2053 20.7925 12.6827 20.4191 12C20.0458 11.3173 19.8591 10.512 19.8591 9.584C19.8591 8.66667 20.0458 7.86667 20.4191 7.184C20.7925 6.50133 21.3045 5.97867 21.9551 5.616C22.6165 5.25333 23.3738 5.072 24.2271 5.072C25.0911 5.072 25.8431 5.25333 26.4831 5.616C27.1338 5.968 27.6298 6.45867 27.9711 7.088C28.3231 7.70667 28.4991 8.4 28.4991 9.168ZM26.6591 9.12C26.6805 8.544 26.5791 8.064 26.3551 7.68C26.1418 7.28533 25.8431 6.99733 25.4591 6.816C25.0858 6.624 24.6751 6.528 24.2271 6.528C23.5125 6.528 22.9151 6.74667 22.4351 7.184C21.9551 7.62133 21.6938 8.26667 21.6511 9.12H26.6591ZM37.5463 5.072C38.3463 5.072 39.0289 5.26933 39.5943 5.664C40.1596 6.05867 40.5596 6.58133 40.7943 7.232V5.184H42.6183V14H40.7943V11.952C40.5596 12.6027 40.1596 13.1253 39.5943 13.52C39.0289 13.9147 38.3463 14.112 37.5463 14.112C36.7783 14.112 36.0903 13.9307 35.4823 13.568C34.8849 13.2053 34.4156 12.6827 34.0743 12C33.7329 11.3173 33.5623 10.512 33.5623 9.584C33.5623 8.66667 33.7329 7.86667 34.0743 7.184C34.4156 6.50133 34.8849 5.97867 35.4823 5.616C36.0903 5.25333 36.7783 5.072 37.5463 5.072ZM38.1063 6.672C37.2956 6.672 36.6449 6.93333 36.1543 7.456C35.6743 7.968 35.4343 8.67733 35.4343 9.584C35.4343 10.4907 35.6743 11.2053 36.1543 11.728C36.6449 12.24 37.2956 12.496 38.1063 12.496C38.6183 12.496 39.0769 12.3787 39.4823 12.144C39.8876 11.8987 40.2076 11.5573 40.4423 11.12C40.6769 10.6827 40.7943 10.1707 40.7943 9.584C40.7943 9.008 40.6769 8.50133 40.4423 8.064C40.2076 7.616 39.8876 7.27467 39.4823 7.04C39.0769 6.79467 38.6183 6.672 38.1063 6.672ZM46.6311 2.16V14H44.8071V2.16H46.6311ZM50.6624 2.16V14H48.8384V2.16H50.6624ZM59.5156 5.072C60.5503 5.072 61.377 5.33867 61.9956 5.872C62.625 6.39467 63.009 7.09867 63.1476 7.984H61.4196C61.345 7.504 61.137 7.12 60.7956 6.832C60.465 6.53333 60.0223 6.384 59.4676 6.384C59.009 6.384 58.6516 6.496 58.3956 6.72C58.1503 6.93333 58.0276 7.22667 58.0276 7.6C58.0276 7.87733 58.1183 8.10133 58.2996 8.272C58.481 8.44267 58.705 8.576 58.9716 8.672C59.249 8.768 59.6383 8.87467 60.1396 8.992C60.801 9.14133 61.3343 9.296 61.7396 9.456C62.1556 9.616 62.5076 9.872 62.7956 10.224C63.0943 10.5653 63.2436 11.0347 63.2436 11.632C63.2436 12.368 62.961 12.9653 62.3956 13.424C61.841 13.8827 61.089 14.112 60.1396 14.112C59.041 14.112 58.1503 13.856 57.4676 13.344C56.7956 12.832 56.3903 12.1173 56.2516 11.2H58.0276C58.081 11.68 58.2943 12.0693 58.6676 12.368C59.041 12.6667 59.5316 12.816 60.1396 12.816C60.577 12.816 60.9183 12.704 61.1636 12.48C61.4196 12.2453 61.5476 11.952 61.5476 11.6C61.5476 11.2907 61.4516 11.0453 61.2596 10.864C61.0676 10.6827 60.8276 10.544 60.5396 10.448C60.2516 10.3413 59.857 10.2347 59.3556 10.128C58.7156 9.97867 58.193 9.82933 57.7876 9.68C57.393 9.53067 57.0516 9.29067 56.7636 8.96C56.4863 8.61867 56.3476 8.16 56.3476 7.584C56.3476 6.83733 56.625 6.23467 57.1796 5.776C57.745 5.30667 58.5236 5.072 59.5156 5.072ZM73.2648 9.168C73.2648 9.46667 73.2434 9.728 73.2008 9.952H66.4168C66.4488 10.8587 66.6994 11.5307 67.1688 11.968C67.6381 12.4053 68.2194 12.624 68.9128 12.624C69.5208 12.624 70.0328 12.4693 70.4488 12.16C70.8754 11.8507 71.1368 11.44 71.2328 10.928H73.1848C73.0674 11.5467 72.8221 12.096 72.4488 12.576C72.0754 13.056 71.5901 13.4347 70.9928 13.712C70.3954 13.9787 69.7288 14.112 68.9928 14.112C68.1394 14.112 67.3821 13.9307 66.7208 13.568C66.0701 13.2053 65.5581 12.6827 65.1848 12C64.8114 11.3173 64.6248 10.512 64.6248 9.584C64.6248 8.66667 64.8114 7.86667 65.1848 7.184C65.5581 6.50133 66.0701 5.97867 66.7208 5.616C67.3821 5.25333 68.1394 5.072 68.9928 5.072C69.8568 5.072 70.6088 5.25333 71.2488 5.616C71.8994 5.968 72.3954 6.45867 72.7368 7.088C73.0888 7.70667 73.2648 8.4 73.2648 9.168ZM71.4248 9.12C71.4461 8.544 71.3448 8.064 71.1208 7.68C70.9074 7.28533 70.6088 6.99733 70.2248 6.816C69.8514 6.624 69.4408 6.528 68.9928 6.528C68.2781 6.528 67.6808 6.74667 67.2008 7.184C66.7208 7.62133 66.4594 8.26667 66.4168 9.12H71.4248ZM76.8499 6.912C77.1485 6.336 77.5752 5.88267 78.1299 5.552C78.6845 5.21067 79.3245 5.04 80.0499 5.04V7.024H79.5059C78.7059 7.024 78.0605 7.22133 77.5699 7.616C77.0899 8 76.8499 8.64 76.8499 9.536V14H75.0259V5.184H76.8499V6.912ZM85.0325 12.112L87.5285 5.184H89.4805L86.1205 14H83.9125L80.5525 5.184H82.5045L85.0325 12.112ZM90.5668 2.624C90.5668 2.31467 90.6734 2.05867 90.8868 1.856C91.1001 1.65333 91.3828 1.552 91.7348 1.552C92.0868 1.552 92.3694 1.65333 92.5828 1.856C92.8068 2.05867 92.9188 2.31467 92.9188 2.624C92.9188 2.93333 92.8068 3.184 92.5828 3.376C92.3694 3.568 92.0868 3.664 91.7348 3.664C91.3828 3.664 91.1001 3.568 90.8868 3.376C90.6734 3.184 90.5668 2.93333 90.5668 2.624ZM92.6468 5.184V14H90.8228V5.184H92.6468ZM98.774 5.072C99.9153 5.072 100.859 5.376 101.606 5.984C102.353 6.58133 102.817 7.39733 102.998 8.432H101.062C100.955 7.87733 100.694 7.44533 100.278 7.136C99.8727 6.816 99.3607 6.656 98.742 6.656C98.038 6.656 97.4513 6.90667 96.982 7.408C96.5127 7.89867 96.278 8.624 96.278 9.584C96.278 10.544 96.5127 11.2747 96.982 11.776C97.4513 12.2773 98.038 12.528 98.742 12.528C99.3607 12.528 99.8727 12.368 100.278 12.048C100.694 11.728 100.955 11.2907 101.062 10.736H102.998C102.817 11.7707 102.353 12.592 101.606 13.2C100.859 13.808 99.9153 14.112 98.774 14.112C97.9207 14.112 97.1633 13.9307 96.502 13.568C95.8513 13.2053 95.3393 12.6827 94.966 12C94.5927 11.3173 94.406 10.512 94.406 9.584C94.406 8.66667 94.5927 7.86667 94.966 7.184C95.3393 6.50133 95.8513 5.97867 96.502 5.616C97.1633 5.25333 97.9207 5.072 98.774 5.072ZM112.952 9.168C112.952 9.46667 112.931 9.728 112.888 9.952H106.104C106.136 10.8587 106.387 11.5307 106.856 11.968C107.326 12.4053 107.907 12.624 108.6 12.624C109.208 12.624 109.72 12.4693 110.136 12.16C110.563 11.8507 110.824 11.44 110.92 10.928H112.872C112.755 11.5467 112.51 12.096 112.136 12.576C111.763 13.056 111.278 13.4347 110.68 13.712C110.083 13.9787 109.416 14.112 108.68 14.112C107.827 14.112 107.07 13.9307 106.408 13.568C105.758 13.2053 105.246 12.6827 104.872 12C104.499 11.3173 104.312 10.512 104.312 9.584C104.312 8.66667 104.499 7.86667 104.872 7.184C105.246 6.50133 105.758 5.97867 106.408 5.616C107.07 5.25333 107.827 5.072 108.68 5.072C109.544 5.072 110.296 5.25333 110.936 5.616C111.587 5.968 112.083 6.45867 112.424 7.088C112.776 7.70667 112.952 8.4 112.952 9.168ZM111.112 9.12C111.134 8.544 111.032 8.064 110.808 7.68C110.595 7.28533 110.296 6.99733 109.912 6.816C109.539 6.624 109.128 6.528 108.68 6.528C107.966 6.528 107.368 6.74667 106.888 7.184C106.408 7.62133 106.147 8.26667 106.104 9.12H111.112ZM117.609 5.072C118.644 5.072 119.471 5.33867 120.089 5.872C120.719 6.39467 121.103 7.09867 121.241 7.984H119.513C119.439 7.504 119.231 7.12 118.889 6.832C118.559 6.53333 118.116 6.384 117.561 6.384C117.103 6.384 116.745 6.496 116.489 6.72C116.244 6.93333 116.121 7.22667 116.121 7.6C116.121 7.87733 116.212 8.10133 116.393 8.272C116.575 8.44267 116.799 8.576 117.065 8.672C117.343 8.768 117.732 8.87467 118.233 8.992C118.895 9.14133 119.428 9.296 119.833 9.456C120.249 9.616 120.601 9.872 120.889 10.224C121.188 10.5653 121.337 11.0347 121.337 11.632C121.337 12.368 121.055 12.9653 120.489 13.424C119.935 13.8827 119.183 14.112 118.233 14.112C117.135 14.112 116.244 13.856 115.561 13.344C114.889 12.832 114.484 12.1173 114.345 11.2H116.121C116.175 11.68 116.388 12.0693 116.761 12.368C117.135 12.6667 117.625 12.816 118.233 12.816C118.671 12.816 119.012 12.704 119.257 12.48C119.513 12.2453 119.641 11.952 119.641 11.6C119.641 11.2907 119.545 11.0453 119.353 10.864C119.161 10.6827 118.921 10.544 118.633 10.448C118.345 10.3413 117.951 10.2347 117.449 10.128C116.809 9.97867 116.287 9.82933 115.881 9.68C115.487 9.53067 115.145 9.29067 114.857 8.96C114.58 8.61867 114.441 8.16 114.441 7.584C114.441 6.83733 114.719 6.23467 115.273 5.776C115.839 5.30667 116.617 5.072 117.609 5.072Z" fill="#F58A07"/>
<path fill-rule="evenodd" clip-rule="evenodd" d="M148.634 4.19887L152.808 8.51989C153.064 8.78505 153.064 9.21495 152.808 9.48011L148.634 13.8011C148.378 14.0663 147.962 14.0663 147.706 13.8011C147.45 13.536 147.45 13.1061 147.706 12.8409L150.761 9.67898L131 9.67898V8.32102L150.761 8.32102L147.706 5.1591C147.45 4.89394 147.45 4.46403 147.706 4.19887C147.962 3.93371 148.378 3.93371 148.634 4.19887Z" fill="#F58A07"/>
</svg>
